<svg width="100" height="100" viewBox="0 0 100 100" xmlns="http://www.w3.org/2000/svg">
  <defs>
    <linearGradient id="logo-gradient" x1="0%" y1="0%" x2="100%" y2="100%">
      <stop offset="0%" style="stop-color:hsl(155 100% 22%);"/>
      <stop offset="100%" style="stop-color:hsl(155 100% 32%);"/>
    </linearGradient>
  </defs>
  <path d="M 50,5 A 45,45 0 1 0 50,95 A 45,45 0 0 0 50,5 Z M 50,15 A 35,35 0 1 1 50,85 A 35,35 0 0 1 50,15 Z" fill="url(#logo-gradient)"/>
  <path d="M 50 25 C 60 40, 60 60, 50 75 C 45 70, 40 60, 40 50 C 40 40, 45 30, 50 25 Z" fill="hsl(48 90% 47%)" transform="rotate(15, 50, 50)"/>
  <path d="M 50 50 C 55 55, 60 65, 50 75" stroke="hsl(48 90% 47%)" stroke-width="3" fill="none" stroke-linecap="round"/>
</svg>
