<svg width="24" height="24" viewBox="0 0 24 24" fill="none" xmlns="http://www.w3.org/2000/svg">
<path fill-rule="evenodd" clip-rule="evenodd" d="M12 2C6.48 2 2 6.48 2 12C2 17.52 6.48 22 12 22C17.52 22 22 17.52 22 12C22 6.48 17.52 2 12 2ZM12 20C7.59 20 4 16.41 4 12C4 7.59 7.59 4 12 4C16.41 4 20 7.59 20 12C20 16.41 16.41 20 12 20Z" fill="hsl(var(--primary))"/>
<path d="M12 6C9.24 6 7 8.24 7 11C7 12.76 7.85 14.3 9.04 15.24L9.03 15.25L12 18L14.97 15.25L14.96 15.24C16.15 14.3 17 12.76 17 11C17 8.24 14.76 6 12 6ZM12 13.5C11.17 13.5 10.5 12.83 10.5 12C10.5 11.17 11.17 10.5 12 10.5C12.83 10.5 13.5 11.17 13.5 12C13.5 12.83 12.83 13.5 12 13.5Z" fill="hsl(var(--accent))"/>
</svg>
