<svg width="256" height="256" viewBox="0 0 256 256" xmlns="http://www.w3.org/2000/svg">
  <defs>
    <linearGradient id="gradient" x1="0%" y1="0%" x2="100%" y2="100%">
      <stop offset="0%" style="stop-color:hsl(155, 60%, 45%);stop-opacity:1" />
      <stop offset="100%" style="stop-color:hsl(48, 90%, 50%);stop-opacity:1" />
    </linearGradient>
  </defs>
  <circle cx="128" cy="128" r="120" fill="white" stroke="url(#gradient)" stroke-width="12"/>
  <g transform="translate(68, 80) scale(0.4)">
    <path d="M192.5,41.2c-29.4-24.1-70.3-24.1-99.7,0C74.2,56.6,64,76.9,64,96c0,42.4,43,84.6,96,119.2c53-34.6,96-76.8,96-119.2c0-19.1-10.2-39.4-28.8-54.8C219.7,24.5,206.5,19.3,192.5,41.2z" fill="hsl(155, 60%, 45%)" transform="translate(-50, 0)"/>
    <path d="M192.5,41.2c-29.4-24.1-70.3-24.1-99.7,0C74.2,56.6,64,76.9,64,96c0,42.4,43,84.6,96,119.2c53-34.6,96-76.8,96-119.2c0-19.1-10.2-39.4-28.8-54.8C219.7,24.5,206.5,19.3,192.5,41.2z" fill="hsl(48, 90%, 50%)" transform="translate(50, 0)"/>
  </g>
</svg>
