<svg width="100" height="100" viewBox="0 0 100 100" xmlns="http://www.w3.org/2000/svg">
  <defs>
    <linearGradient id="logoGradient" x1="0%" y1="0%" x2="100%" y2="100%">
      <stop offset="0%" style="stop-color:hsl(155, 100%, 22%);stop-opacity:1" />
      <stop offset="100%" style="stop-color:hsl(48, 90%, 47%);stop-opacity:1" />
    </linearGradient>
  </defs>
  
  <!-- Heart shape -->
  <path d="M 50,35 A 15,15 0 0 1 65,20 A 15,15 0 0 1 80,35 C 80,50 50,70 50,70 C 50,70 20,50 20,35 A 15,15 0 0 1 35,20 A 15,15 0 0 1 50,35" fill="url(#logoGradient)"/>
  
  <!-- Hand shape -->
  <path d="M 20 85 C 10 75, 15 60, 25 55 C 35 50, 40 60, 40 60 L 70 60 C 85 60, 90 70, 80 85 L 70 95 L 30 95 L 20 85 Z" fill="#E2E8F0" stroke="hsl(var(--border))" stroke-width="2"/>
</svg>
