<svg width="100" height="100" viewBox="0 0 100 100" xmlns="http://www.w3.org/2000/svg">
  <defs>
    <linearGradient id="border-gradient" x1="0%" y1="0%" x2="100%" y2="100%">
      <stop offset="0%" stop-color="hsl(155, 60%, 45%)"/>
      <stop offset="100%" stop-color="hsl(48, 90%, 50%)"/>
    </linearGradient>
  </defs>

  <circle cx="50" cy="50" r="48" fill="white" stroke="url(#border-gradient)" stroke-width="4"/>
  
  <g transform="translate(5, 5)">
    <path d="M36.8,16.6 C30.6,16.6 25.5,21.8 25.5,28 c0,11.5,15.3,21.8,15.3,21.8 s15.3-10.4,15.3-21.8C56.1,21.8,51,16.6,44.8,16.6 C41.7,16.6,38.8,18.1,36.8,20.4 C34.8,18.1,31.9,16.6,36.8,16.6z" fill="hsl(155, 60%, 45%)" transform="scale(1.2) translate(-8, 8) rotate(-15 36.8 33)"/>
    <path d="M36.8,16.6 C30.6,16.6 25.5,21.8 25.5,28 c0,11.5,15.3,21.8,15.3,21.8 s15.3-10.4,15.3-21.8C56.1,21.8,51,16.6,44.8,16.6 C41.7,16.6,38.8,18.1,36.8,20.4 C34.8,18.1,31.9,16.6,36.8,16.6z" fill="hsl(48, 90%, 50%)" transform="scale(1.2) translate(8, 8) rotate(15 36.8 33)"/>
  </g>
</svg>
