<svg width="256" height="256" viewBox="0 0 512 512" xmlns="http://www.w3.org/2000/svg">
  <defs>
    <linearGradient id="logo-gradient" x1="0%" y1="0%" x2="100%" y2="100%">
      <stop offset="0%" style="stop-color:hsl(155, 60%, 45%);"/>
      <stop offset="100%" style="stop-color:hsl(48, 90%, 50%);"/>
    </linearGradient>
  </defs>

  <!-- White background circle -->
  <circle cx="256" cy="256" r="250" fill="white"/>

  <!-- Gradient border -->
  <circle cx="256" cy="256" r="240" fill="none" stroke="url(#logo-gradient)" stroke-width="20"/>

  <!-- Palm up hand 🫴 -->
  <path 
    fill="hsl(155, 60%, 45%)"
    d="M365.3,313.4c-9.3-3.7-17.6-8.5-25.2-14.3c-2.3-1.8-5.7-2-8.3-0.4c-2.6,1.6-3.8,4.7-2.9,7.6 c7.8,24.9,9.4,51.1,5.2,76.5c-0.8,4.8-5.1,8.3-9.8,8.3h-130c-5.5,0-10-4.5-10-10v-30.8c0-5.5,4.5-10,10-10h12.5 c4.6,0,8.7-3.2,9.7-7.7c3.4-13.8,10-26.6,19.3-37.4l0,0c10.7-12.4,17.4-27.6,19.3-43.9c1-8.9,0.2-17.8-2.2-26.3 c-2-7.1-0.2-14.8,4.4-20.3l10.2-12.3c4.7-5.7,12-7.8,18.8-5.8l1.7,0.5c7.9,2.4,16.2,1.3,23.3-3c2.7-1.6,6-1.4,8.5,0.5 c7.5,5.6,16.2,8.6,25.1,8.6c13.7,0,26.9-5.6,36.5-15.5c4.7-4.8,12.2-4.8,16.9,0c4.7,4.8,4.7,12.5,0,17.3 c-12.6,12.9-29.6,20.1-47.5,20.1c-13.8,0-27.2-4.1-38.9-11.6c-2.2-1.4-4.9-1.9-7.4-1.2c-7.9,2.1-16.1,0.9-23.4-3.5l-9.2-5.5 c-0.6-0.4-1.4-0.4-2,0l-10.2,12.3c-1,1.2-1.4,2.9-1.1,4.4c1.8,6.2,2.4,12.6,1.8,18.9c-1.4,14.2-6.8,27.6-15.6,38.9 c-7.4,9.4-12.5,20.5-14.6,32.4c-0.2,1.1-1.2,1.9-2.3,1.9h-12.5c-1.7,0-3,1.3-3,3v30.8c0,1.7,1.3,3,3,3h130 c1.6,0,3.1-0.9,3.8-2.3c3.7-7.4,6.7-15.1,9-23c1.3-4.3,5.6-7,9.9-6.3c4.4,0.7,7.6,4.6,7,9c-3,10.1-6.8,19.8-11.3,29 c-2.2,4.6,0.1,10.1,4.9,11.8c4.8,1.7,10-0.2,12.1-4.6c5.6-11.9,9.4-24.5,11.3-37.4c0.8-5.1,5.6-8.5,10.6-7.5 c5,0.9,8.5,5.6,7.6,10.6c-1.6,9.1-4.2,18-7.7,26.4c-1.9,4.6,0.2,9.9,4.9,11.7c4.7,1.8,9.8-0.2,11.8-4.8 c4.2-9.4,7.3-19.3,9.2-29.3c0.9-4.7,5.3-7.9,9.9-7.3c4.5,0.6,7.9,4.8,7.3,9.5c-1.2,8.6-3.4,17.1-6.5,25.3 c-1.7,4.5,0.5,9.7,5.2,11.2c4.7,1.5,9.7-0.7,11.2-5.3c3.8-11.5,6-23.6,6.5-35.7c0.2-5.2,4.6-9.3,9.8-9.3c5.2,0,9.5,4,9.8,9.2 C376,303.8,371,309.8,365.3,313.4z"
  />
</svg>
