<svg width="100" height="100" viewBox="0 0 100 100" xmlns="http://www.w3.org/2000/svg">
  <defs>
    <linearGradient id="gradient-border" x1="0%" y1="0%" x2="100%" y2="100%">
      <stop offset="0%" style="stop-color:hsl(155, 100%, 22%);" />
      <stop offset="100%" style="stop-color:hsl(48, 90%, 47%);" />
    </linearGradient>
  </defs>
  
  <circle cx="50" cy="50" r="46" fill="white" />
  <circle cx="50" cy="50" r="46" fill="none" stroke="url(#gradient-border)" stroke-width="8" />
  
  <path d="M 50,75 C 40,75 35,65 35,55 C 35,45 40,40 45,40 C 50,40 52,45 53,48 C 55,45 58,40 62,40 C 68,40 70,48 68,55 C 65,65 60,75 50,75 Z M 30,55 C 30,35 40,25 50,25 C 60,25 70,35 70,55 L 70,60 C 70,70 60,85 50,85 C 40,85 30,70 30,60 L 30,55 Z" fill="hsl(155, 100%, 22%)"/>
</svg>
